# xmcd
#
# Track frame offsets:
#	150
#	9895
#	24202
#	40952
#	55937
#	78373
#	99627
#	113886
#	130447
#
# Disc length: 2023 seconds
#
# Revision: 2
# Processed by: cddbd v1.5PL3 Copyright (c) Steve Scherf et al.
# Submitted via: audiograbber 1.82.02
#
DISCID=6707e509
DTITLE=Romain Didier - Le monde entre mes bras
DYEAR=1984
DGENRE=Chanson
TTITLE0=Amélie
TTITLE1=Senor Ou Senorita
TTITLE2=Tu M'as Volé La Mer Du Nord
TTITLE3=Pleure Pas
TTITLE4=Chantez-Moi La Mer
TTITLE5=Si Fragile
TTITLE6=Vie De Femme
TTITLE7=Pour Vous Déplaire
TTITLE8=Le Funambule Est Mort Ce Soir
EXTD=
EXTT0=
EXTT1=
EXTT2=
EXTT3=
EXTT4=
EXTT5=
EXTT6=
EXTT7=
EXTT8=
PLAYORDER=
